<svg width="16" height="30" viewBox="0 0 16 30" fill="none" xmlns="http://www.w3.org/2000/svg">
<path d="M14.9204 21.8747C14.4617 21.4181 13.7197 21.4199 13.2631 21.8786L9.17187 25.9897V1.17188C9.17187 0.524648 8.64722 0 8 0C7.35277 0 6.82812 0.524648 6.82812 1.17188V25.9897L2.73687 21.8786C2.28031 21.4198 1.53834 21.4181 1.07961 21.8746C0.620816 22.3312 0.619117 23.0732 1.07562 23.532L7.16937 29.6552C7.16972 29.6556 7.17013 29.6559 7.17048 29.6563C7.62705 30.1138 8.37142 30.1153 8.82951 29.6563C8.82986 29.6559 8.83027 29.6556 8.83062 29.6553L14.9244 23.532C15.3808 23.0733 15.3792 22.3313 14.9204 21.8747Z" fill="white"/>
</svg>
