<svg width="32" height="28" viewBox="0 0 32 28" fill="none" xmlns="http://www.w3.org/2000/svg">
<path d="M26 27.171H20.75C20.3375 27.171 20 26.789 20 26.322V23.4916C20 23.0246 20.3375 22.6425 20.75 22.6425H26C27.1063 22.6425 28 21.6307 28 20.3783V6.79276C28 5.54035 27.1063 4.52851 26 4.52851H20.75C20.3375 4.52851 20 4.14642 20 3.67941V0.849095C20 0.382093 20.3375 0 20.75 0H26C29.3125 0 32 3.04259 32 6.79276V20.3783C32 24.1285 29.3125 27.171 26 27.171ZM23.0625 12.9487L12.5625 1.06137C11.625 0 10 0.742958 10 2.26425V9.05702H1.5C0.66875 9.05702 0 9.81413 0 10.7552V17.548C0 18.489 0.66875 19.2462 1.5 19.2462H10V26.0389C10 27.5602 11.625 28.3032 12.5625 27.2418L23.0625 15.3545C23.6437 14.6893 23.6437 13.6138 23.0625 12.9487Z" fill="white"/>
</svg>
