<svg width="30" height="22" viewBox="0 0 30 22" fill="none" xmlns="http://www.w3.org/2000/svg">
<path d="M27.3633 0.453125H2.63672C1.1799 0.453125 0 1.64035 0 3.08984V18.9102C0 20.3683 1.18857 21.5469 2.63672 21.5469H27.3633C28.8079 21.5469 30 20.3732 30 18.9102V3.08984C30 1.64293 28.8248 0.453125 27.3633 0.453125ZM26.994 2.21094C26.4553 2.74678 17.1846 11.9687 16.8645 12.2871C16.3664 12.7852 15.7043 13.0594 15 13.0594C14.2957 13.0594 13.6336 12.7851 13.1339 12.2855C12.9186 12.0713 3.75018 2.95121 3.00598 2.21094H26.994ZM1.75781 18.5524V3.44873L9.35379 11.0047L1.75781 18.5524ZM3.00709 19.7891L10.6001 12.2444L11.8926 13.5301C12.7226 14.3601 13.8262 14.8172 15 14.8172C16.1738 14.8172 17.2774 14.3601 18.1058 13.5317L19.3999 12.2444L26.9929 19.7891H3.00709ZM28.2422 18.5524L20.6462 11.0047L28.2422 3.44873V18.5524Z" fill="#848484"/>
</svg>
